<svg xmlns="http://www.w3.org/2000/svg" xmlns:xlink="http://www.w3.org/1999/xlink" width="100" zoomAndPan="magnify" viewBox="0 0 75 74.999997" height="100" preserveAspectRatio="xMidYMid meet" version="1.0"><defs><g/><clipPath id="14c151dc02"><path d="M 37.5 0 C 16.789062 0 0 16.789062 0 37.5 C 0 58.210938 16.789062 75 37.5 75 C 58.210938 75 75 58.210938 75 37.5 C 75 16.789062 58.210938 0 37.5 0 Z M 37.5 0 " clip-rule="nonzero"/></clipPath><clipPath id="03a84edb54"><path d="M 0 0 L 75 0 L 75 75 L 0 75 Z M 0 0 " clip-rule="nonzero"/></clipPath><clipPath id="7f126d7c4b"><path d="M 37.5 0 C 16.789062 0 0 16.789062 0 37.5 C 0 58.210938 16.789062 75 37.5 75 C 58.210938 75 75 58.210938 75 37.5 C 75 16.789062 58.210938 0 37.5 0 Z M 37.5 0 " clip-rule="nonzero"/></clipPath><clipPath id="6a8250e6bb"><rect x="0" width="75" y="0" height="75"/></clipPath><clipPath id="5cb2290155"><path d="M 23.539062 42 L 51.5 42 L 51.5 66.453125 L 23.539062 66.453125 Z M 23.539062 42 " clip-rule="nonzero"/></clipPath><clipPath id="fc94d729ac"><path d="M 24.648438 45.925781 C 22.382812 49.65625 23.976562 53.285156 25.984375 55.210938 L 37.699219 66.453125 L 49.171875 55.25 C 51.035156 53.179688 51.75 50.980469 51.351562 48.53125 C 50.804688 45.144531 48.015625 42.519531 44.566406 42.144531 C 42.453125 41.917969 40.410156 42.515625 38.816406 43.839844 C 38.386719 44.195312 38.003906 44.59375 37.671875 45.027344 C 37.273438 44.535156 36.808594 44.082031 36.285156 43.683594 C 34.449219 42.289062 32.117188 41.738281 29.875 42.167969 C 27.753906 42.578125 25.847656 43.945312 24.648438 45.925781 Z M 24.648438 45.925781 " clip-rule="nonzero"/></clipPath><clipPath id="ab2cb3a409"><path d="M 0.539062 0 L 28.5 0 L 28.5 24.453125 L 0.539062 24.453125 Z M 0.539062 0 " clip-rule="nonzero"/></clipPath><clipPath id="0e6f7515b7"><path d="M 1.648438 3.925781 C -0.617188 7.65625 0.976562 11.285156 2.984375 13.210938 L 14.699219 24.453125 L 26.171875 13.25 C 28.035156 11.179688 28.75 8.980469 28.351562 6.53125 C 27.804688 3.144531 25.015625 0.519531 21.566406 0.144531 C 19.453125 -0.0820312 17.410156 0.515625 15.816406 1.839844 C 15.386719 2.195312 15.003906 2.59375 14.671875 3.027344 C 14.273438 2.535156 13.808594 2.082031 13.285156 1.683594 C 11.449219 0.289062 9.117188 -0.261719 6.875 0.167969 C 4.753906 0.578125 2.847656 1.945312 1.648438 3.925781 Z M 1.648438 3.925781 " clip-rule="nonzero"/></clipPath><clipPath id="c4159fc562"><rect x="0" width="29" y="0" height="25"/></clipPath><clipPath id="fa60e57844"><path d="M 8.546875 8.546875 L 66.296875 8.546875 L 66.296875 25 L 8.546875 25 Z M 8.546875 8.546875 " clip-rule="nonzero"/></clipPath><clipPath id="bc6085e75a"><path d="M 32 44 L 43 44 L 43 54.296875 L 32 54.296875 Z M 32 44 " clip-rule="nonzero"/></clipPath><clipPath id="2aca310b8a"><path d="M 0.199219 4 L 7 4 L 7 13 L 0.199219 13 Z M 0.199219 4 " clip-rule="nonzero"/></clipPath><clipPath id="86d114a765"><path d="M 7 4 L 12.921875 4 L 12.921875 13 L 7 13 Z M 7 4 " clip-rule="nonzero"/></clipPath><clipPath id="23b607823c"><rect x="0" width="13" y="0" height="16"/></clipPath></defs><rect x="-7.5" width="90" fill="#ffffff" y="-7.5" height="89.999996" fill-opacity="1"/><rect x="-7.5" width="90" fill="#ffffff" y="-7.5" height="89.999996" fill-opacity="1"/><g clip-path="url(#14c151dc02)"><g transform="matrix(1, 0, 0, 1, 0, -0.000000000000001893)"><g clip-path="url(#6a8250e6bb)"><g clip-path="url(#03a84edb54)"><g clip-path="url(#7f126d7c4b)"><rect x="-16.5" width="108" fill="#ffacca" height="107.999996" y="-16.499999" fill-opacity="1"/></g></g></g></g></g><g clip-path="url(#5cb2290155)"><g clip-path="url(#fc94d729ac)"><g transform="matrix(1, 0, 0, 1, 23, 42)"><g clip-path="url(#c4159fc562)"><g clip-path="url(#ab2cb3a409)"><g clip-path="url(#0e6f7515b7)"><path fill="#ffffff" d="M 0.539062 0.0234375 L 28.5 0.0234375 L 28.5 24.453125 L 0.539062 24.453125 Z M 0.539062 0.0234375 " fill-opacity="1" fill-rule="nonzero"/></g></g></g></g></g></g><path fill="#ffffff" d="M 50.019531 36.667969 C 46.800781 33.476562 42.378906 31.5 37.5 31.5 C 32.621094 31.5 28.195312 33.476562 24.976562 36.667969 L 24.875 36.769531 L 28.933594 40.824219 L 29.035156 40.722656 C 31.210938 38.570312 34.203125 37.238281 37.5 37.238281 C 40.792969 37.238281 43.785156 38.570312 45.960938 40.722656 L 46.0625 40.824219 L 50.121094 36.769531 Z M 50.019531 36.667969 " fill-opacity="1" fill-rule="nonzero"/><path fill="#ffffff" d="M 58.132812 28.554688 C 52.835938 23.285156 45.542969 20.023438 37.5 20.023438 C 29.457031 20.023438 22.160156 23.285156 16.867188 28.554688 L 16.765625 28.65625 L 20.820312 32.710938 L 20.921875 32.609375 C 25.179688 28.378906 31.039062 25.761719 37.5 25.761719 C 43.960938 25.761719 49.816406 28.378906 54.074219 32.609375 L 54.175781 32.710938 L 58.230469 28.65625 Z M 58.132812 28.554688 " fill-opacity="1" fill-rule="nonzero"/><g clip-path="url(#fa60e57844)"><path fill="#ffffff" d="M 66.242188 20.445312 C 58.867188 13.097656 48.707031 8.546875 37.5 8.546875 C 26.292969 8.546875 16.128906 13.097656 8.753906 20.445312 L 8.652344 20.546875 L 12.707031 24.601562 L 12.808594 24.5 C 19.144531 18.191406 27.875 14.285156 37.5 14.285156 C 47.125 14.285156 55.851562 18.191406 62.1875 24.5 L 62.289062 24.601562 L 66.34375 20.546875 Z M 66.242188 20.445312 " fill-opacity="1" fill-rule="nonzero"/></g><g clip-path="url(#bc6085e75a)"><path fill="#ffffff" d="M 42.148438 49.414062 C 42.148438 49.113281 42.117188 48.8125 42.058594 48.515625 C 42 48.21875 41.914062 47.929688 41.796875 47.648438 C 41.679688 47.367188 41.539062 47.101562 41.371094 46.851562 C 41.203125 46.597656 41.011719 46.367188 40.796875 46.152344 C 40.582031 45.9375 40.347656 45.746094 40.097656 45.578125 C 39.84375 45.410156 39.578125 45.265625 39.296875 45.152344 C 39.019531 45.035156 38.730469 44.945312 38.433594 44.886719 C 38.136719 44.828125 37.835938 44.800781 37.53125 44.800781 C 37.230469 44.800781 36.929688 44.828125 36.632812 44.886719 C 36.335938 44.945312 36.046875 45.035156 35.765625 45.152344 C 35.484375 45.265625 35.21875 45.410156 34.96875 45.578125 C 34.714844 45.746094 34.484375 45.9375 34.269531 46.152344 C 34.054688 46.367188 33.863281 46.597656 33.695312 46.851562 C 33.527344 47.101562 33.382812 47.367188 33.269531 47.648438 C 33.152344 47.929688 33.066406 48.21875 33.003906 48.515625 C 32.945312 48.8125 32.917969 49.113281 32.917969 49.414062 C 32.917969 49.71875 32.945312 50.019531 33.003906 50.316406 C 33.066406 50.613281 33.152344 50.902344 33.269531 51.179688 C 33.382812 51.460938 33.527344 51.726562 33.695312 51.980469 C 33.863281 52.230469 34.054688 52.464844 34.269531 52.679688 C 34.484375 52.890625 34.714844 53.082031 34.96875 53.253906 C 35.21875 53.421875 35.484375 53.5625 35.765625 53.679688 C 36.046875 53.792969 36.335938 53.882812 36.632812 53.941406 C 36.929688 54 37.230469 54.03125 37.53125 54.03125 C 37.835938 54.03125 38.136719 54 38.433594 53.941406 C 38.730469 53.882812 39.019531 53.792969 39.296875 53.679688 C 39.578125 53.5625 39.84375 53.421875 40.097656 53.253906 C 40.347656 53.082031 40.582031 52.890625 40.796875 52.679688 C 41.011719 52.464844 41.203125 52.230469 41.371094 51.980469 C 41.539062 51.726562 41.679688 51.460938 41.796875 51.179688 C 41.914062 50.902344 42 50.613281 42.058594 50.316406 C 42.117188 50.019531 42.148438 49.71875 42.148438 49.414062 " fill-opacity="1" fill-rule="nonzero"/></g><g transform="matrix(1, 0, 0, 1, 31, 46)"><g clip-path="url(#23b607823c)"><g clip-path="url(#2aca310b8a)"><g fill="#ffacca" fill-opacity="1"><g transform="translate(0.255886, 12.035679)"><g><path d="M 3.265625 -4.390625 L 4.8125 -7.46875 L 6.515625 -7.46875 L 4.046875 -2.90625 L 4.046875 0 L 2.46875 0 L 2.46875 -2.859375 L 0 -7.46875 L 1.71875 -7.46875 Z M 3.265625 -4.390625 "/></g></g></g></g><g clip-path="url(#86d114a765)"><g fill="#ffacca" fill-opacity="1"><g transform="translate(6.775878, 12.035679)"><g><path d="M 3.140625 -4.765625 C 3.859375 -4.765625 4.429688 -4.5625 4.859375 -4.15625 C 5.285156 -3.75 5.5 -3.195312 5.5 -2.5 C 5.5 -1.664062 5.238281 -1.019531 4.71875 -0.5625 C 4.207031 -0.113281 3.472656 0.109375 2.515625 0.109375 C 1.691406 0.109375 1.023438 -0.0234375 0.515625 -0.296875 L 0.515625 -1.65625 C 0.773438 -1.519531 1.082031 -1.40625 1.4375 -1.3125 C 1.800781 -1.21875 2.144531 -1.171875 2.46875 -1.171875 C 3.425781 -1.171875 3.90625 -1.566406 3.90625 -2.359375 C 3.90625 -3.109375 3.410156 -3.484375 2.421875 -3.484375 C 2.234375 -3.484375 2.03125 -3.46875 1.8125 -3.4375 C 1.59375 -3.40625 1.414062 -3.367188 1.28125 -3.328125 L 0.65625 -3.65625 L 0.9375 -7.46875 L 4.984375 -7.46875 L 4.984375 -6.125 L 2.328125 -6.125 L 2.1875 -4.65625 L 2.359375 -4.703125 C 2.566406 -4.742188 2.828125 -4.765625 3.140625 -4.765625 Z M 3.140625 -4.765625 "/></g></g></g></g></g></g></svg>